# xmcd CD database file
#
# Track frame offsets:
#	150
#	14532
#	27197
#	42903
#	57005
#	68405
#	83427
#	94974
#	108182
#	120491
#	131703
#	145247
#	159842
#	169970
#	183240
#	197820
#	208026
#	221315
#
# Disc length: 3108 seconds
#
# Revision: 0
# Processed by: cddbd v1.5.2PL0 Copyright (c) Steve Scherf et al.
# Submitted via: CDex 1.70beta2
#
DISCID=ec0c2212
DTITLE=Kendalls, The - Two Heart Harmony and Thank God For The Radio
DYEAR=1985
DGENRE=Country
TTITLE0=Two Heart Harmony
TTITLE1=Four Wheel Drive
TTITLE2=Somewhere Between
TTITLE3=I Don't Know Any Better
TTITLE4=My Baby Left Me
TTITLE5=If You Break My Heart
TTITLE6=My Own Sweet Time
TTITLE7=I'm Still His Life-Long Dream
TTITLE8=I Never Looked Good In Blue
TTITLE9=One Good-Bye From Gone
TTITLE10=Thank God For The Radio    
TTITLE11=That's What I Get For Thinking
TTITLE12=Take Me To Heaven (Before You Take Me Home)
TTITLE13=The Dark End Of The Street
TTITLE14=Movin' Train
TTITLE15=Teach Me To Cheat
TTITLE16=If You're Waiting On Me (You're Backing Up)
TTITLE17=Cheater's Prayer
EXTD=YEAR: 1985
EXTT0=
EXTT1=
EXTT2=
EXTT3=
EXTT4=
EXTT5=
EXTT6=
EXTT7=
EXTT8=
EXTT9=
EXTT10=
EXTT11=
EXTT12=
EXTT13=
EXTT14=
EXTT15=
EXTT16=
EXTT17=
PLAYORDER=
